HIERARCHY
ROOT Hips
{
  OFFSET 0.000000 0.000000 0.000000
  CHANNELS 6 Xposition Yposition Zposition Zrotation Yrotation Xrotation
  JOINT Spine
  {
    OFFSET -0.015866 2.161571 -0.123088
    CHANNELS 3 Zrotation Yrotation Xrotation
    JOINT Spine1
    {
      OFFSET 0.047270 2.166742 -0.035688
      CHANNELS 3 Zrotation Yrotation Xrotation
      JOINT Spine2
      {
        OFFSET 0.051304 2.168585 0.023627
        CHANNELS 3 Zrotation Yrotation Xrotation
        JOINT Neck
        {
          OFFSET -0.085860 1.603348 0.327826
          CHANNELS 3 Zrotation Yrotation Xrotation
          JOINT Head
          {
            OFFSET 0.033864 1.694337 -0.145844
            CHANNELS 3 Zrotation Yrotation Xrotation
            End Site
            {
              OFFSET 0 0 0
            }
          }
        }
        JOINT LeftShoulder
        {
          OFFSET 3.173933 1.019010 -0.528970
          CHANNELS 3 Zrotation Yrotation Xrotation
          JOINT LeftArm
          {
            OFFSET 5.252870 -0.000000 -0.000000
            CHANNELS 3 Zrotation Yrotation Xrotation
            JOINT LeftForeArm
            {
              OFFSET 3.510140 -0.000000 0.000000
              CHANNELS 3 Zrotation Yrotation Xrotation
              JOINT LeftHand
              {
                OFFSET 0.706179 -0.000000 -0.000000
                CHANNELS 3 Zrotation Yrotation Xrotation
                JOINT LeftHandIndex1
                {
                  OFFSET 0.569339 -0.000000 -0.000000
                  CHANNELS 3 Zrotation Yrotation Xrotation
                  End Site
                  {
                    OFFSET 0 0 0
                  }
                }
              }
            }
          }
        }
        JOINT RightShoulder
        {
          OFFSET -2.994711 1.264946 -0.611251
          CHANNELS 3 Zrotation Yrotation Xrotation
          JOINT RightArm
          {
            OFFSET -5.287210 -0.000000 -0.000000
            CHANNELS 3 Zrotation Yrotation Xrotation
            JOINT RightForeArm
            {
              OFFSET -3.505440 -0.000000 0.000000
              CHANNELS 3 Zrotation Yrotation Xrotation
              JOINT RightHand
              {
                OFFSET -0.884996 -0.000000 -0.000000
                CHANNELS 3 Zrotation Yrotation Xrotation
                JOINT RightHandIndex1
                {
                  OFFSET -0.713507 -0.000000 -0.000000
                  CHANNELS 3 Zrotation Yrotation Xrotation
                  End Site
                  {
                    OFFSET 0 0 0
                  }
                }
              }
            }
          }
        }
      }
    }
  }
  JOINT LeftUpLeg
  {
    OFFSET 2.501716 -6.873413 0.000000
    CHANNELS 3 Zrotation Yrotation Xrotation
    JOINT LeftLeg
    {
      OFFSET 2.675229 -7.350138 0.000000
      CHANNELS 3 Zrotation Yrotation Xrotation
      JOINT LeftFoot
      {
        OFFSET 0.174460 -0.479325 2.131547
        CHANNELS 3 Zrotation Yrotation Xrotation
        JOINT LeftToeBase
        {
          OFFSET 0.000000 -0.000000 1.100230
          CHANNELS 3 Zrotation Yrotation Xrotation
          End Site
          {
            OFFSET 0 0 0
          }
        }
      }
    }
  }
  JOINT RightUpLeg
  {
    OFFSET -2.597892 -7.137654 0.000000
    CHANNELS 3 Zrotation Yrotation Xrotation
    JOINT RightLeg
    {
      OFFSET -2.621248 -7.201826 0.000000
      CHANNELS 3 Zrotation Yrotation Xrotation
      JOINT RightFoot
      {
        OFFSET -0.312867 -0.859598 2.078137
        CHANNELS 3 Zrotation Yrotation Xrotation
        JOINT RightToeBase
        {
          OFFSET -0.000000 -0.000000 1.117660
          CHANNELS 3 Zrotation Yrotation Xrotation
          End Site
          {
            OFFSET 0 0 0
          }
        }
      }
    }
  }
}
MOTION
Frames: 9
Frame Time: 0.00833333
6.659370 16.257800 -17.515400 5.793320 13.290300 5.862410 -9.619960 11.573000 -33.866900 0.000000 0.000000 64.091400 -6.934280 0.000000 -11.868500 0.000000 0.000000 -15.835500 8.691760 -15.235300 -42.783600 0.000000 0.000000 59.437600 -7.450330 0.000000 -19.337300 0.000000 0.000000 -18.287200 -3.245300 -0.008838 20.346700 3.146430 -0.390876 7.294890 5.314120 -0.229749 -3.409460 -11.121000 -3.453070 -22.838900 2.514130 -1.279180 10.476200 -0.000000 0.000000 0.000000 87.678700 -1.342180 -7.796570 0.000000 0.000000 63.747700 44.348100 0.000000 -0.671288 0.000000 0.000000 7.125020 -0.000000 0.000000 0.000000 -66.117100 -21.121900 -20.971000 0.000000 0.000000 75.691900 19.334100 0.000000 -19.903500 0.000000 0.000000 7.125020
6.709770 16.249700 -17.410400 6.028690 13.272800 6.264750 -9.577930 11.058600 -34.479600 0.000000 0.000000 61.903700 -6.319220 0.000000 -12.241700 0.000000 0.000000 -16.862500 8.297000 -15.316900 -42.954700 0.000000 0.000000 59.876200 -7.214420 0.000000 -19.795800 0.000000 0.000000 -17.944500 -3.352020 0.141235 20.445600 3.061280 -0.222687 7.251700 5.247580 -0.143034 -3.525700 -10.925800 -3.576220 -22.718200 2.429810 -1.376170 10.407200 -0.000000 0.000000 0.000000 87.976100 -2.423480 -6.827120 0.000000 0.000000 63.430100 45.090200 0.000000 -0.450523 0.000000 0.000000 7.125020 -0.000000 0.000000 0.000000 -66.092200 -21.539200 -19.972100 0.000000 0.000000 75.935800 18.983900 0.000000 -20.288800 0.000000 0.000000 7.125020
6.758540 16.233600 -17.307300 6.110590 13.202300 6.617320 -9.305490 10.580200 -35.023100 0.000000 0.000000 59.626500 -5.726020 0.000000 -12.755900 0.000000 0.000000 -17.902000 8.084250 -15.249500 -43.094100 0.000000 0.000000 60.218300 -7.117950 0.000000 -20.288800 0.000000 0.000000 -17.065000 -3.131850 0.562206 20.526000 2.784370 0.348029 7.131200 4.690080 0.150235 -3.763300 -10.172400 -3.876240 -21.843300 2.190010 -1.666860 10.111600 -0.000000 0.000000 0.000000 88.128800 -4.611730 -5.942020 0.000000 0.000000 63.008800 45.006900 0.000000 -0.665115 0.000000 0.000000 7.125020 -0.000000 0.000000 0.000000 -65.790700 -22.897400 -19.894200 0.000000 0.000000 76.582800 17.791600 0.000000 -20.350500 0.000000 0.000000 7.125020
6.808460 16.221800 -17.205500 5.934660 13.144600 6.854080 -8.698400 10.012400 -35.450900 0.000000 0.000000 57.250400 -5.164940 0.000000 -13.051900 0.000000 0.000000 -17.087100 8.146940 -15.134700 -43.147100 0.000000 0.000000 60.540800 -7.341690 0.000000 -20.880600 0.000000 0.000000 -16.395400 -3.097460 0.297109 20.745500 2.967290 0.018103 7.266850 4.947870 -0.017143 -3.693560 -10.916300 -3.872740 -22.773200 2.425820 -1.552940 10.354000 0.000000 0.000000 0.000000 88.334600 -4.316450 -4.896910 0.000000 0.000000 62.782700 44.350900 0.000000 -0.983741 0.000000 0.000000 7.125020 0.000000 0.000000 0.000000 -66.150300 -22.089800 -17.908300 0.000000 0.000000 76.913100 17.141300 0.000000 -20.452600 0.000000 0.000000 7.125020
6.865170 16.207800 -17.106500 5.803690 13.073800 7.071630 -8.097350 9.347780 -35.746900 0.000000 0.000000 54.735800 -4.868540 0.000000 -13.027500 0.000000 0.000000 -15.130400 8.122970 -15.109000 -43.175500 0.000000 0.000000 60.854300 -7.462060 0.000000 -21.367800 0.000000 0.000000 -16.037100 -2.914050 0.193180 21.021200 3.012830 -0.081927 7.351990 4.918880 -0.065426 -3.732920 -11.231300 -3.976060 -23.450200 2.498720 -1.552320 10.539000 -0.000000 -0.000000 0.000000 88.411800 -4.973330 -3.742520 0.000000 0.000000 62.470700 43.829400 0.000000 -1.335500 0.000000 0.000000 7.125020 -0.000000 -0.000000 0.000000 -66.365600 -21.785900 -16.342500 0.000000 0.000000 77.229100 17.268200 0.000000 -20.527600 0.000000 0.000000 7.125020
6.922700 16.190300 -17.009900 5.678300 12.950900 7.277800 -7.449600 8.723010 -35.940200 0.000000 0.000000 52.053000 -4.691510 0.000000 -12.911300 0.000000 0.000000 -13.737500 8.113700 -15.049100 -43.220000 0.000000 0.000000 61.177700 -7.584070 0.000000 -21.821600 0.000000 0.000000 -16.946600 -2.746060 0.277287 21.339700 3.019450 0.056286 7.376930 4.801190 0.006947 -3.884210 -11.328300 -4.104260 -23.768500 2.542370 -1.602910 10.610100 0.000000 -0.000000 0.000000 88.493700 -6.262740 -2.461470 0.000000 0.000000 61.944600 44.100600 0.000000 -2.124750 0.000000 0.000000 7.125020 0.000000 -0.000000 0.000000 -66.234900 -21.659100 -15.377000 0.000000 0.000000 77.988500 17.173300 0.000000 -20.563800 0.000000 0.000000 7.125020
6.978750 16.185300 -16.915100 5.666800 12.744700 7.487500 -6.876940 7.969900 -35.988300 0.000000 0.000000 49.210500 -4.399010 0.000000 -12.741600 0.000000 0.000000 -13.650100 7.988630 -14.885500 -43.240600 0.000000 0.000000 61.482200 -7.852490 0.000000 -22.312600 0.000000 0.000000 -18.564100 -2.776470 0.595645 21.658700 2.932020 0.451226 7.227550 4.632330 0.210912 -4.249020 -11.082700 -4.249120 -23.044000 2.500330 -1.751850 10.372300 -0.000000 0.000000 0.000000 88.604200 -8.079880 -1.644980 0.000000 0.000000 61.637600 44.117400 0.000000 -2.964300 0.000000 0.000000 7.125020 -0.000000 0.000000 0.000000 -65.998800 -22.011600 -15.030200 0.000000 0.000000 78.875900 17.042400 0.000000 -20.776600 0.000000 0.000000 7.125020
7.039620 16.180000 -16.819100 5.805210 12.597000 7.704050 -6.445900 7.064260 -35.953100 0.000000 0.000000 46.306200 -4.236020 0.000000 -12.363700 0.000000 0.000000 -15.632900 7.662700 -14.816900 -43.203600 0.000000 0.000000 61.765000 -8.104770 0.000000 -22.738200 0.000000 0.000000 -19.102400 -2.935530 0.582944 21.961500 2.831070 0.390476 7.213800 4.633100 0.184655 -4.411210 -11.207800 -4.247740 -22.873600 2.594580 -1.741800 10.223800 0.000000 -0.000000 0.000000 88.533700 -8.813220 -0.847891 0.000000 0.000000 61.622900 43.027900 0.000000 -2.990910 0.000000 0.000000 7.125020 0.000000 -0.000000 0.000000 -66.560800 -22.044400 -13.334300 0.000000 0.000000 78.735900 17.719800 0.000000 -21.172000 0.000000 0.000000 7.125020
7.102570 16.163900 -16.720500 5.491640 12.615000 7.855720 -5.445040 6.171590 -35.977300 0.000000 0.000000 43.422700 -4.512860 0.000000 -11.369200 0.000000 0.000000 -17.994900 7.834410 -14.785500 -43.131400 0.000000 0.000000 61.992400 -8.108030 0.000000 -23.036300 0.000000 0.000000 -18.560300 -2.622590 0.549566 22.149200 2.837890 0.410630 7.196720 4.456940 0.198544 -4.527540 -11.076700 -4.299800 -22.626900 2.538230 -1.792990 10.053300 -0.000000 0.000000 0.000000 88.437900 -9.945020 0.058330 0.000000 0.000000 61.506000 42.598600 0.000000 -3.070690 0.000000 0.000000 7.125020 -0.000000 0.000000 0.000000 -67.011800 -22.303500 -11.573700 0.000000 0.000000 78.332300 18.035200 0.000000 -21.643500 0.000000 0.000000 7.125020
